<svg xmlns="http://www.w3.org/2000/svg" width="512" height="512" viewBox="0 0 512 512" fill="none" role="img" aria-labelledby="title desc">
<title id="title">Deep Learning bilingual soundwave mark</title>
<desc id="desc">Two mirrored speech waves converge into an AI learning spark</desc>
<path d="M225 91H153C98 91 57 133 57 188V264C57 315 91 354 139 361L119 419L192 365H225" stroke="#2C3540" stroke-width="30" stroke-linecap="round" stroke-linejoin="round"/>
<path d="M287 91H359C414 91 455 133 455 188V264C455 315 421 354 373 361L393 419L320 365H287" stroke="#184C78" stroke-width="30" stroke-linecap="round" stroke-linejoin="round"/>
<path d="M112 226H145L162 185L191 285L216 226H238" stroke="#184C78" stroke-width="22" stroke-linecap="round" stroke-linejoin="round"/>
<path d="M400 226H367L350 185L321 285L296 226H274" stroke="#2C3540" stroke-width="22" stroke-linecap="round" stroke-linejoin="round"/>
<path d="M256 184L269 213L298 226L269 239L256 268L243 239L214 226L243 213L256 184Z" fill="#ADC4CE" stroke="#2C3540" stroke-width="10" stroke-linejoin="round"/>
<circle cx="113" cy="226" r="11" fill="#ADC4CE"/>
<circle cx="399" cy="226" r="11" fill="#ADC4CE"/>
</svg>
